<svg version="1.1" id="Layer_1" xmlns="http://www.w3.org/2000/svg" xmlns:xlink="http://www.w3.org/1999/xlink" x="0px" y="0px"
	 width="100%" viewBox="0 0 496 496" enable-background="new 0 0 496 496" xml:space="preserve">
<path fill="#000000" opacity="1.000000" stroke="none" 
	d="
M153.703125,268.239624 
	C158.518341,270.946350 163.009430,273.481873 167.527390,275.968597 
	C167.902634,276.175110 168.459396,276.051849 169.020294,276.087402 
	C170.361313,273.693420 169.731400,271.156555 169.753860,268.739105 
	C169.849777,258.413116 169.735870,248.084564 169.900543,237.760178 
	C169.951859,234.542435 168.854202,232.588943 166.008926,230.976303 
	C151.381256,222.685684 136.843414,214.235794 122.318321,205.765854 
	C119.950096,204.384888 117.944077,204.032242 115.400055,205.559769 
	C102.699791,213.185532 89.734573,220.371735 77.392448,228.589661 
	C70.175652,233.394882 66.016609,232.721939 59.441139,225.405609 
	C63.023556,221.899643 67.598404,219.814713 71.755463,217.265991 
	C86.088783,208.478226 100.654526,200.070114 115.017670,191.329926 
	C117.992218,189.519882 120.247742,189.582733 123.210808,191.346893 
	C141.091339,201.992615 159.067627,212.478149 177.055527,222.942245 
	C179.546875,224.391556 181.160294,225.999405 181.156006,229.151093 
	C181.126617,250.803421 181.215088,272.455902 181.239029,294.108368 
	C181.239883,294.891418 180.964203,295.674805 180.582703,297.710022 
	C145.248215,276.861633 109.675354,257.686066 75.013710,236.293961 
	C77.704666,232.716125 81.034782,231.760483 83.777283,230.044952 
	C94.077843,223.601517 104.542221,217.420349 114.862450,211.007706 
	C117.573921,209.322906 119.842430,209.117294 122.660873,210.871933 
	C133.684402,217.734711 144.864868,224.344986 155.911743,231.170914 
	C164.100830,236.230957 164.761276,238.093430 162.660492,248.753235 
	C155.962219,245.983871 150.145676,241.857040 144.012970,238.348618 
	C136.788925,234.215866 129.656555,229.922821 122.486496,225.695740 
	C120.907051,224.764587 119.282516,223.485519 117.405090,224.599335 
	C111.428513,228.145050 105.074905,231.112106 98.758827,236.349472 
	C117.342789,247.135818 135.364410,257.595764 153.703125,268.239624 
z"/>
<path fill="#000000" opacity="1.000000" stroke="none" 
	d="
M158.325958,295.487000 
	C147.310196,302.083923 136.528580,308.385193 125.909866,314.949921 
	C121.857895,317.454926 118.463852,318.035858 114.104401,315.224915 
	C101.659714,307.200623 88.923256,299.629028 76.306602,291.871155 
	C70.123299,288.069122 73.853180,282.826904 73.796837,277.011993 
	C80.483795,280.865692 86.371078,284.184937 92.185181,287.627747 
	C99.492317,291.954681 106.874435,296.177979 113.960777,300.845917 
	C118.045479,303.536591 121.487862,304.190918 125.700798,301.146820 
	C129.581863,298.342529 133.929169,296.183502 139.213669,293.066254 
	C115.453873,279.144165 92.516579,265.704041 69.886299,252.443787 
	C67.966095,253.742294 68.250061,255.015991 68.244850,256.119354 
	C68.194489,266.778809 68.246796,277.438995 68.138535,288.097687 
	C68.110001,290.907562 69.110641,292.704163 71.562836,294.163727 
	C86.724007,303.187775 101.841393,312.286652 116.894485,321.489624 
	C119.457985,323.056854 121.366791,322.610687 123.739937,321.163452 
	C135.819397,313.796906 147.962143,306.532837 160.136932,299.324463 
	C168.874146,294.151306 169.927368,294.342682 177.948212,301.843048 
	C174.923813,305.525604 170.517593,307.317383 166.654129,309.652252 
	C152.551712,318.174927 138.228470,326.331665 124.101685,334.814880 
	C121.302711,336.495758 119.209862,336.612366 116.384102,334.876099 
	C97.664101,323.373749 78.855637,312.014862 60.029533,300.686432 
	C57.994751,299.462006 56.723953,298.137390 56.731941,295.618927 
	C56.796398,275.299683 56.795742,254.980209 56.837807,234.660843 
	C56.838772,234.193436 57.107510,233.726562 57.651970,231.958374 
	C93.052071,251.095566 126.771233,272.467285 161.460678,291.356445 
	C161.465408,294.097900 159.725159,294.408936 158.325958,295.487000 
z"/>
<path fill="#000000" opacity="1.000000" stroke="none" 
	d="
M296.302643,244.999298 
	C296.301636,249.657745 296.399811,253.819687 296.259705,257.973602 
	C296.187256,260.121490 297.202881,263.050903 293.885742,263.724274 
	C290.697449,264.371490 287.637939,264.242706 285.557037,260.927643 
	C282.730103,256.424042 279.695862,252.049820 276.719177,247.641312 
	C275.545746,245.903473 274.287811,244.222702 272.190216,241.286880 
	C272.190216,248.221313 272.085938,253.639328 272.226532,259.050964 
	C272.321747,262.714813 270.715637,264.077423 267.140350,264.049683 
	C263.641296,264.022552 262.576324,262.472717 262.621338,259.138672 
	C262.758270,248.993546 262.601776,238.844620 262.711060,228.698792 
	C262.733643,226.601898 261.602997,223.631317 264.986938,222.944611 
	C268.189667,222.294693 271.117310,222.516373 273.241821,225.844482 
	C277.252808,232.127686 281.585785,238.205338 286.702942,245.715759 
	C286.702942,238.670044 286.787079,233.115173 286.670685,227.564499 
	C286.603119,224.341217 287.546295,222.658844 291.179138,222.657242 
	C294.746277,222.655685 296.376648,223.793701 296.276215,227.533844 
	C296.124451,233.184738 296.278809,238.843857 296.302643,244.999298 
z"/>
<path fill="#000000" opacity="1.000000" stroke="none" 
	d="
M418.635498,257.771973 
	C419.031464,262.141815 417.923004,264.499115 413.198730,264.026611 
	C410.286102,263.735291 408.963074,262.629181 408.974518,259.733246 
	C409.018616,248.575165 409.009003,237.416870 409.052185,226.258789 
	C409.059631,224.334244 409.334198,222.472992 411.924042,222.471161 
	C416.404449,222.467987 420.858643,221.705109 425.371887,222.438080 
	C431.494751,223.432495 436.082520,226.203842 437.641174,232.514862 
	C439.049103,238.215576 437.559692,243.038177 432.563477,246.519455 
	C432.185150,246.783066 431.987335,247.305801 431.489929,248.016052 
	C434.128601,252.784714 436.826263,257.660004 439.541870,262.567688 
	C432.551422,265.483307 429.526978,264.548218 426.443787,258.850128 
	C425.176178,256.507477 423.986664,254.122711 422.741638,251.767670 
	C422.113739,250.579910 421.457062,249.205856 419.811707,249.592804 
	C418.054535,250.006027 418.404846,251.640808 418.386475,252.907928 
	C418.364868,254.401733 418.527252,255.898209 418.635498,257.771973 
M428.450104,234.900864 
	C427.646606,232.836456 425.987427,231.662140 423.931244,231.601517 
	C421.730011,231.536621 418.509064,230.303741 418.396271,234.358261 
	C418.342499,236.292953 417.301575,239.151901 420.441406,239.594040 
	C423.825958,240.070663 427.624176,240.526917 428.450104,234.900864 
z"/>
<path fill="#000000" opacity="1.000000" stroke="none" 
	d="
M378.868835,224.629883 
	C384.700043,220.971542 388.523804,222.120087 390.673126,227.672592 
	C394.629608,237.893845 398.675323,248.080841 402.573792,258.324005 
	C403.242096,260.080017 405.518341,262.765350 402.129181,263.608887 
	C399.409180,264.285889 395.834625,265.622833 393.607941,262.012207 
	C392.429810,260.101868 392.508118,257.054840 389.813812,256.526428 
	C385.898376,255.758560 381.872589,255.999023 377.896576,256.382874 
	C376.571106,256.510864 376.047668,257.619385 375.501373,258.677185 
	C372.441895,264.601135 371.388275,265.027161 363.775635,262.802063 
	C368.771271,250.157059 373.739441,237.581558 378.868835,224.629883 
M383.715515,237.287567 
	C383.032379,238.758865 382.206787,240.183548 381.705658,241.714417 
	C381.190735,243.287308 379.323395,245.058792 381.305145,246.580307 
	C383.117126,247.971512 385.266052,247.964417 387.155518,246.053955 
	C386.818604,242.951950 385.740082,240.084534 383.715515,237.287567 
z"/>
<path fill="#000000" opacity="1.000000" stroke="none" 
	d="
M255.914673,226.547607 
	C255.775375,234.980118 256.371735,242.982819 255.406662,250.952347 
	C254.362427,259.575439 248.528961,264.848450 239.999252,264.858398 
	C231.322784,264.868530 224.254913,258.841034 223.828842,250.358704 
	C223.428238,242.382904 223.766190,234.371399 223.713196,226.376053 
	C223.691452,223.096436 225.639709,222.617966 228.312302,222.689514 
	C231.010941,222.761734 233.339401,222.910233 233.299637,226.571533 
	C233.225479,233.400452 233.253708,240.231873 233.348267,247.060745 
	C233.422638,252.431992 235.438568,254.830048 239.637436,254.848297 
	C243.889252,254.866776 245.770050,252.711441 245.905548,247.119583 
	C246.066925,240.459900 246.037628,233.794296 246.002487,227.131699 
	C245.984238,223.673294 247.778198,222.792374 250.974365,222.460922 
	C254.149796,222.131622 255.811539,222.760239 255.914673,226.547607 
z"/>
<path fill="#000000" opacity="1.000000" stroke="none" 
	d="
M319.613647,238.315979 
	C321.267059,239.176575 322.642303,239.789764 323.908997,240.577499 
	C329.485046,244.044952 332.094421,249.202179 330.899231,254.253754 
	C329.492035,260.201385 324.503723,264.260437 317.932617,264.900360 
	C314.468811,265.237671 311.314941,264.250641 308.339508,262.691040 
	C301.619720,259.168854 301.542419,255.724823 308.100647,251.175079 
	C310.749237,252.243652 312.606323,255.160736 315.948883,254.936020 
	C317.765686,254.813889 319.844574,255.108566 320.533203,252.853592 
	C321.221283,250.600388 319.558258,249.543259 317.865784,248.673798 
	C315.202118,247.305466 312.452271,246.090988 309.859436,244.601593 
	C304.591034,241.575302 302.088318,237.069565 302.903046,232.449722 
	C303.818848,227.256760 307.736725,223.144379 313.144318,222.130859 
	C318.865448,221.058594 324.081512,222.099564 328.147552,226.676392 
	C329.509705,228.209641 329.341278,229.714050 327.832031,231.025360 
	C326.057037,232.567551 324.717346,235.181183 321.582062,233.044678 
	C318.727570,231.099533 315.668640,230.301163 312.600891,232.949493 
	C313.812225,236.463287 316.900238,236.840240 319.613647,238.315979 
z"/>
<path fill="#000000" opacity="1.000000" stroke="none" 
	d="
M208.076019,238.836288 
	C213.075775,241.131577 217.342422,243.740173 218.300217,249.329224 
	C219.932816,258.856049 211.948227,266.375305 202.013687,264.694763 
	C200.229721,264.392975 198.443924,263.802582 196.796173,263.046448 
	C189.097839,259.513763 188.789871,256.379700 195.612869,251.156677 
	C198.149323,251.892059 199.547729,254.609848 202.366531,255.091217 
	C204.861053,255.517227 207.312164,255.700745 208.355316,253.076370 
	C209.416473,250.406754 207.104889,249.299240 205.120316,248.311432 
	C202.294205,246.904739 199.344238,245.703217 196.659409,244.066055 
	C192.142151,241.311508 189.816833,237.257263 190.875931,231.849548 
	C191.915939,226.539337 195.439880,223.481445 200.560699,222.257187 
	C205.915558,220.977005 210.838760,221.943710 214.918411,225.799423 
	C216.343979,227.146713 217.985092,228.820221 215.783813,230.843384 
	C214.075409,232.413544 212.813873,235.122803 209.593948,233.103500 
	C206.431290,231.120132 203.084991,229.885391 199.756012,233.434525 
	C201.761475,236.625626 205.109909,237.114563 208.076019,238.836288 
z"/>
<path fill="#000000" opacity="1.000000" stroke="none" 
	d="
M352.984772,222.711395 
	C355.642731,222.711288 357.811798,222.825943 359.964722,222.687897 
	C363.512848,222.460434 365.520203,223.274155 365.436310,227.567734 
	C365.350616,231.955124 363.071289,231.978561 359.919373,231.521317 
	C355.656952,230.902954 353.714142,232.516632 354.428009,237.057159 
	C355.623901,244.663788 354.233063,252.326004 354.693573,259.956848 
	C354.851257,262.570404 353.974518,264.165375 351.011444,263.845703 
	C348.501953,263.574921 345.501953,264.396149 345.613434,260.038055 
	C345.804810,252.559982 345.424500,245.063461 345.739075,237.593842 
	C345.920471,233.286346 344.452026,231.253952 340.165131,231.610214 
	C336.752167,231.893860 334.469269,231.611954 334.533386,227.070496 
	C334.600311,222.326675 337.458984,222.710159 340.515503,222.723434 
	C344.506470,222.740784 348.497589,222.718109 352.984772,222.711395 
z"/>
<path fill="#000000" opacity="1.000000" stroke="none" 
	d="
M412.048676,278.097046 
	C415.601410,276.038849 419.097504,276.552765 422.441345,277.394958 
	C428.015869,278.798920 431.463776,283.752502 431.101318,289.239380 
	C430.709961,295.163513 426.021393,300.386658 419.831451,300.577240 
	C411.003235,300.849060 411.561188,301.591248 411.608093,293.365051 
	C411.636353,288.405670 410.703796,283.432343 412.048676,278.097046 
M415.380981,294.505310 
	C418.684235,298.355072 421.948395,295.925720 424.723358,294.014008 
	C427.529114,292.081085 427.631744,286.708771 425.340363,284.107330 
	C423.216492,281.696045 420.386780,280.549438 417.301483,281.347015 
	C414.058868,282.185333 415.587555,285.169922 415.376190,287.258240 
	C415.160858,289.385925 415.329285,291.552399 415.380981,294.505310 
z"/>
<path fill="#000000" opacity="1.000000" stroke="none" 
	d="
M233.381393,297.282867 
	C228.882446,301.229553 224.251709,302.001556 219.260956,299.307007 
	C214.338348,296.649231 213.095490,292.204559 213.562653,287.002014 
	C213.996628,282.169250 216.632019,279.010986 221.069351,277.340179 
	C225.759750,275.574066 230.921860,277.165314 234.032211,281.195465 
	C237.349060,285.493134 237.209000,291.329437 233.381393,297.282867 
M226.003204,280.651031 
	C222.218628,280.192108 219.571503,281.787811 218.091217,285.226257 
	C216.759537,288.319519 216.822586,291.382141 219.022385,294.106934 
	C221.141571,296.731873 224.039215,297.183105 227.126938,296.504181 
	C230.474716,295.768097 232.220139,293.302429 232.503296,290.130341 
	C232.894760,285.744995 231.111801,282.397858 226.003204,280.651031 
z"/>
<path fill="#000000" opacity="1.000000" stroke="none" 
	d="
M242.646484,277.079346 
	C247.030487,278.675476 248.489395,282.626953 250.931381,285.689148 
	C252.240738,287.331085 253.151520,289.335052 255.703094,290.871216 
	C255.703094,286.991547 255.670914,283.566650 255.719223,280.142883 
	C255.738068,278.808197 255.804733,277.225861 257.627838,277.199615 
	C259.608521,277.171173 259.377106,278.850677 259.360168,280.130463 
	C259.273438,286.684021 260.105438,293.287903 258.533569,300.777924 
	C252.192261,296.205078 249.991501,289.217621 244.822922,284.265656 
	C243.251465,289.497833 245.692123,295.122284 243.378159,299.865509 
	C241.710831,299.885345 241.010315,299.386627 240.951630,298.469788 
	C240.526733,291.831360 240.414993,285.186798 240.999680,278.553223 
	C241.044083,278.049347 241.815475,277.609558 242.646484,277.079346 
z"/>
<path fill="#000000" opacity="1.000000" stroke="none" 
	d="
M300.647339,290.850769 
	C300.053802,294.625793 304.168488,295.970184 304.501160,299.905304 
	C298.043396,300.983215 298.641022,292.020172 293.293732,292.021667 
	C291.517365,293.747314 292.696503,296.101715 292.150177,298.101013 
	C291.864258,299.147156 291.423462,299.992950 290.178802,299.859283 
	C289.184021,299.752411 288.770050,298.920471 288.766022,298.092041 
	C288.735321,291.785309 288.755432,285.478149 288.807312,279.171478 
	C288.814423,278.309082 289.371460,277.682373 290.150391,277.232574 
	C293.029449,275.570129 301.159058,277.141541 303.141571,279.771423 
	C305.604828,283.039062 304.785431,286.926514 300.647339,290.850769 
M298.586182,281.487122 
	C296.361786,281.201569 293.786926,280.045074 292.547424,282.991638 
	C292.004333,284.282623 291.765167,286.265991 293.248413,287.114380 
	C295.241669,288.254456 297.497711,287.940643 299.316559,286.453339 
	C301.102753,284.992767 301.027313,283.359833 298.586182,281.487122 
z"/>
<path fill="#000000" opacity="1.000000" stroke="none" 
	d="
M322.232239,280.306152 
	C319.731018,280.731964 317.590363,280.926331 315.449768,281.121521 
	C313.507111,281.298645 312.386841,282.253510 312.437653,284.312317 
	C312.487061,286.312653 313.875854,286.508545 315.456818,286.840332 
	C317.805573,287.333313 322.010712,285.293945 322.094757,288.870087 
	C322.182434,292.600342 317.964111,290.619843 315.648285,291.063812 
	C313.864594,291.405701 312.354431,291.667389 312.432007,293.945526 
	C312.508636,296.194122 314.000885,296.608459 315.825439,296.634705 
	C317.649658,296.660950 319.476196,296.651581 321.296906,296.748535 
	C322.470245,296.811005 323.745270,296.997711 323.857605,298.522217 
	C323.968140,300.021698 322.807190,300.519562 321.614563,300.669647 
	C318.141693,301.106689 314.666199,300.982269 311.199799,300.502686 
	C308.937103,300.189606 308.838074,298.503571 308.834686,296.790588 
	C308.824280,291.482666 308.878632,286.174377 308.836853,280.866821 
	C308.813965,277.956909 310.091003,276.599487 313.058655,276.743073 
	C315.541199,276.863220 318.038300,276.701843 320.518463,276.845947 
	C322.507843,276.961517 323.734222,277.823456 322.232239,280.306152 
z"/>
<path fill="#000000" opacity="1.000000" stroke="none" 
	d="
M362.341797,298.031799 
	C362.433258,300.845184 360.552856,300.721130 358.924652,300.866577 
	C348.510956,301.796997 347.656921,301.010254 347.653717,290.583496 
	C347.653259,289.085602 347.651794,287.587677 347.655884,286.089783 
	C347.681213,276.783051 350.347015,274.729218 359.603943,276.847076 
	C360.794983,277.119537 361.967987,277.385651 361.871674,278.934723 
	C361.796692,280.140625 360.804321,280.624664 359.816193,280.745850 
	C357.839294,280.988251 355.839417,281.040009 353.850067,281.185150 
	C352.273193,281.300201 351.453766,282.138275 351.395874,283.743500 
	C351.332001,285.515625 352.088684,286.360687 353.883911,286.828766 
	C356.300354,287.458832 360.799347,285.079163 360.703217,289.230774 
	C360.625946,292.567078 356.324219,290.687317 353.932098,291.166962 
	C352.115906,291.531097 351.313110,292.378662 351.401215,294.182159 
	C351.482117,295.838440 352.463867,296.385529 353.979584,296.619965 
	C356.709045,297.042053 359.658173,295.761261 362.341797,298.031799 
z"/>
<path fill="#000000" opacity="1.000000" stroke="none" 
	d="
M204.391861,276.938782 
	C205.414352,277.267639 206.098557,277.412903 206.640961,277.772247 
	C208.308838,278.877167 211.539246,279.486206 210.086670,282.189575 
	C208.596802,284.962402 206.707397,282.045776 205.088852,281.407379 
	C201.029083,279.806213 197.488907,280.367737 194.868057,283.943024 
	C192.583893,287.058960 192.371719,290.597534 194.764191,293.682892 
	C197.476166,297.180237 201.153091,297.437042 205.117447,295.746521 
	C206.610901,295.109680 208.492905,292.801788 209.757751,295.323151 
	C210.978439,297.756470 208.312546,298.660522 206.647186,299.535767 
	C202.019241,301.968109 197.596237,301.230896 193.570541,298.125519 
	C189.766891,295.191406 188.231750,289.410004 189.948685,284.518677 
	C191.600464,279.812958 195.094727,277.287476 200.006393,276.769226 
	C201.316299,276.631042 202.660355,276.816315 204.391861,276.938782 
z"/>
<path fill="#000000" opacity="1.000000" stroke="none" 
	d="
M263.219727,288.166382 
	C263.492340,277.662415 275.276459,274.314484 281.764832,278.310303 
	C283.111969,279.139954 285.075836,280.142212 283.925018,282.122192 
	C282.859253,283.955811 281.325867,282.508972 280.019531,281.928711 
	C274.017456,279.262421 268.340912,281.379028 267.380371,286.745483 
	C266.832886,289.804199 267.171570,292.727142 269.863159,294.882263 
	C272.832306,297.259674 275.945953,296.957092 279.253845,295.658569 
	C280.850311,295.031860 282.928131,292.444366 284.207733,295.481079 
	C285.223022,297.890442 282.571014,298.748596 280.849457,299.592285 
	C272.651215,303.609924 264.581360,298.545685 263.219727,288.166382 
z"/>
<path fill="#000000" opacity="1.000000" stroke="none" 
	d="
M337.324493,284.495789 
	C337.301178,289.093506 337.312500,293.249268 337.271332,297.404480 
	C337.257690,298.780518 337.088959,300.241699 335.225708,300.187408 
	C333.249054,300.129852 333.486176,298.501160 333.480713,297.227356 
	C333.468567,294.403015 333.576660,291.578400 333.603607,288.753601 
	C333.641052,284.829895 334.568878,280.343719 328.170654,280.629028 
	C327.105652,280.676483 326.454620,279.609406 326.602570,278.472260 
	C326.758911,277.270752 327.733368,276.872314 328.782501,276.864655 
	C333.101501,276.833099 337.421295,276.833221 341.739990,276.887024 
	C342.758057,276.899689 343.788635,277.246246 343.979034,278.449554 
	C344.210663,279.913483 343.218567,280.526184 341.995331,280.828217 
	C340.026184,281.314362 337.363495,280.769440 337.324493,284.495789 
z"/>
<path fill="#000000" opacity="1.000000" stroke="none" 
	d="
M401.318146,289.094604 
	C401.310486,292.219421 401.345093,294.870392 401.275421,297.518585 
	C401.240997,298.827332 401.238037,300.412201 399.289856,300.249603 
	C397.732330,300.119629 397.736023,298.728760 397.720337,297.583862 
	C397.668030,293.775238 397.574158,289.962280 397.699829,286.157684 
	C397.799255,283.146790 397.393494,280.851501 393.580017,280.996155 
	C392.421875,281.040100 391.123840,280.614502 391.027130,279.168732 
	C390.904053,277.329773 392.459198,277.039093 393.748383,277.008575 
	C397.717804,276.914581 401.691925,276.961456 405.662872,277.030151 
	C406.671478,277.047607 407.689575,277.423309 407.914703,278.594269 
	C408.140411,279.768250 407.405823,280.745636 406.374115,280.718018 
	C400.199402,280.552277 401.373627,284.954407 401.318146,289.094604 
z"/>
<path fill="#000000" opacity="1.000000" stroke="none" 
	d="
M392.318268,299.769836 
	C388.263580,301.715759 384.237579,300.385040 380.307770,300.718781 
	C378.247101,300.893799 377.599213,299.267273 377.609680,297.349854 
	C377.641418,291.544128 377.598450,285.737946 377.630859,279.932251 
	C377.638184,278.629608 377.548920,277.034546 379.561249,277.196442 
	C381.103027,277.320435 381.203949,278.654755 381.225311,279.815674 
	C381.286346,283.132202 381.276733,286.450134 381.285187,289.767517 
	C381.302551,296.568146 381.302551,296.502167 387.967987,296.768524 
	C389.847321,296.843628 392.712158,295.772156 392.318268,299.769836 
z"/>
<path fill="#000000" opacity="1.000000" stroke="none" 
	d="
M435.109070,295.279297 
	C437.988953,295.934875 438.450256,297.526459 437.162964,299.630890 
	C436.463348,300.774628 435.170044,301.011719 434.234467,300.085510 
	C432.551361,298.419220 432.429657,296.686462 435.109070,295.279297 
z"/>
</svg>